<svg width="138" height="32" viewBox="0 0 138 32" fill="none" xmlns="http://www.w3.org/2000/svg">
<g id="logoipsum-297 1" clip-path="url(#clip0_1134_67)">
<path id="Vector" fill-rule="evenodd" clip-rule="evenodd" d="M22.1646 9.34824C20.7383 8.4692 19.0615 8 17.3461 8V0C20.7768 0 24.1305 0.938384 26.9831 2.69649C29.8356 4.45458 32.0589 6.95345 33.3718 9.87704C34.6847 12.8006 35.0282 16.0178 34.3589 19.1214C33.6896 22.2251 32.0376 25.0761 29.6116 27.3137C27.1858 29.5514 24.095 31.0752 20.7302 31.6926C17.3654 32.3099 13.8776 31.993 10.708 30.7821C7.53844 29.571 4.82935 27.5203 2.92335 24.8891C1.01733 22.2579 0 19.1645 0 16H8.67305C8.67305 17.5822 9.18173 19.129 10.1347 20.4446C11.0877 21.7602 12.4423 22.7855 14.0271 23.391C15.6118 23.9966 17.3557 24.155 19.0381 23.8462C20.7205 23.5376 22.2659 22.7757 23.4789 21.6569C24.6918 20.538 25.5179 19.1126 25.8525 17.5607C26.1872 16.0089 26.0154 14.4003 25.359 12.9386C24.7025 11.4767 23.5909 10.2273 22.1646 9.34824Z" fill="#00915A"/>
<path id="Vector_2" fill-rule="evenodd" clip-rule="evenodd" d="M8.67305 4.22794e-06C8.67305 1.05058 8.44872 2.09087 8.01285 3.06148C7.57699 4.03207 6.93814 4.91399 6.13277 5.65686C5.32741 6.39973 4.3713 6.989 3.31903 7.39104C2.26677 7.79308 1.13896 8 3.79108e-07 8L0 16C2.27792 16 4.53354 15.5862 6.63807 14.7821C8.7426 13.978 10.6548 12.7994 12.2655 11.3137C13.8763 9.828 15.154 8.06416 16.0257 6.12294C16.8974 4.18172 17.3461 2.10115 17.3461 0L8.67305 4.22794e-06Z" fill="#00915A"/>
<path id="Vector_3" d="M108.95 11.562H104.742V23.8919H108.95V11.562Z" fill="#00915A"/>
<path id="Vector_4" d="M105.21 9.25329C105.65 9.65921 106.2 9.86217 106.86 9.86217C107.52 9.86217 108.061 9.65921 108.483 9.25329C108.905 8.83049 109.116 8.32305 109.116 7.73109C109.116 7.12222 108.905 6.6148 108.483 6.20889C108.061 5.80296 107.52 5.60001 106.86 5.60001C106.2 5.60001 105.65 5.80296 105.21 6.20889C104.788 6.6148 104.577 7.12222 104.577 7.73109C104.577 8.32305 104.788 8.83049 105.21 9.25329Z" fill="#00915A"/>
<path id="Vector_5" d="M44.368 23.8918V5.98053H48.6863V20.3908H57.2952V23.8918H44.368Z" fill="#00915A"/>
<path id="Vector_6" fill-rule="evenodd" clip-rule="evenodd" d="M65.0716 24.1709C63.6964 24.1709 62.4496 23.8918 61.331 23.3337C60.2309 22.7586 59.3599 21.9806 58.7181 20.9996C58.0764 20.0186 57.7555 18.9193 57.7555 17.7015C57.7555 16.4837 58.0764 15.3929 58.7181 14.4288C59.3599 13.4647 60.2309 12.7036 61.331 12.1455C62.4312 11.5704 63.6781 11.2829 65.0716 11.2829C66.4652 11.2829 67.7121 11.562 68.8122 12.1201C69.9124 12.6782 70.7835 13.4478 71.4252 14.4288C72.067 15.3929 72.3879 16.4837 72.3879 17.7015C72.3879 18.9193 72.067 20.0186 71.4252 20.9996C70.7835 21.9806 69.9124 22.7586 68.8122 23.3337C67.7121 23.8918 66.4652 24.1709 65.0716 24.1709ZM65.0716 20.6445C65.6768 20.6445 66.2085 20.5261 66.667 20.2893C67.1253 20.0356 67.4737 19.6889 67.7121 19.2491C67.9688 18.7925 68.0971 18.2765 68.0971 17.7015C68.0971 17.1265 67.9688 16.6275 67.7121 16.2047C67.4553 15.7649 67.0978 15.4267 66.6394 15.1899C66.1993 14.9361 65.6768 14.8093 65.0716 14.8093C64.4849 14.8093 63.9624 14.9361 63.5039 15.1899C63.0455 15.4267 62.6879 15.7649 62.4312 16.2047C62.1745 16.6445 62.0462 17.1518 62.0462 17.7269C62.0462 18.285 62.1745 18.7925 62.4312 19.2491C62.6879 19.6889 63.0455 20.0356 63.5039 20.2893C63.9624 20.5261 64.4849 20.6445 65.0716 20.6445Z" fill="#00915A"/>
<path id="Vector_7" fill-rule="evenodd" clip-rule="evenodd" d="M75.7207 28.7121C76.8391 29.1857 78.1318 29.4225 79.5988 29.4225C81.029 29.4225 82.3034 29.1603 83.4219 28.636C84.5405 28.1117 85.4205 27.3845 86.0623 26.4542C86.704 25.524 87.0254 24.4246 87.0254 23.1561V11.562H82.8993V12.3904C82.5924 12.1521 82.2439 11.9521 81.8542 11.7903C81.139 11.4689 80.323 11.3082 79.4063 11.3082C78.1777 11.3082 77.0867 11.5789 76.1332 12.1201C75.1796 12.6444 74.4279 13.3717 73.8778 14.3019C73.3277 15.2153 73.0527 16.2469 73.0527 17.3971C73.0527 18.5303 73.3277 19.562 73.8778 20.4922C74.4279 21.4225 75.1796 22.1582 76.1332 22.6994C77.0867 23.2406 78.1777 23.5113 79.4063 23.5113C80.3047 23.5113 81.1207 23.3506 81.8542 23.0293C82.2094 22.8736 82.5303 22.6901 82.8168 22.4789V23.2576C82.8168 24.1201 82.5143 24.7882 81.9091 25.2618C81.3224 25.7354 80.5064 25.9721 79.4613 25.9721C78.6178 25.9721 77.8935 25.8369 77.2884 25.5662C76.7017 25.2957 76.1698 24.8981 75.6931 24.3738L73.1077 26.7586C73.7494 27.6043 74.6205 28.2555 75.7207 28.7121ZM81.7166 19.7057C81.2948 19.9425 80.7907 20.0609 80.2038 20.0609C79.6171 20.0609 79.1037 19.9425 78.6636 19.7057C78.2418 19.4689 77.9118 19.1476 77.6735 18.7417C77.4351 18.3189 77.3159 17.8706 77.3159 17.3971C77.3159 16.8897 77.4351 16.433 77.6735 16.0271C77.9118 15.6212 78.251 15.2998 78.6911 15.063C79.1312 14.8262 79.6354 14.7078 80.2038 14.7078C80.7907 14.7078 81.2948 14.8262 81.7166 15.063C82.1567 15.2998 82.4867 15.6212 82.7068 16.0271C82.9451 16.433 83.0643 16.8897 83.0643 17.3971C83.0643 17.9045 82.9451 18.3611 82.7068 18.767C82.4867 19.1561 82.1567 19.4689 81.7166 19.7057Z" fill="#00915A"/>
<path id="Vector_8" fill-rule="evenodd" clip-rule="evenodd" d="M95.8815 24.1709C94.5059 24.1709 93.2587 23.8918 92.1408 23.3337C91.0402 22.7586 90.1694 21.9806 89.5276 20.9996C88.8858 20.0186 88.5649 18.9193 88.5649 17.7015C88.5649 16.4837 88.8858 15.3929 89.5276 14.4288C90.1694 13.4647 91.0402 12.7036 92.1408 12.1455C93.2405 11.5704 94.4877 11.2829 95.8815 11.2829C97.2744 11.2829 98.5215 11.562 99.6213 12.1201C100.722 12.6782 101.593 13.4478 102.234 14.4288C102.876 15.3929 103.197 16.4837 103.197 17.7015C103.197 18.9193 102.876 20.0186 102.234 20.9996C101.593 21.9806 100.722 22.7586 99.6213 23.3337C98.5215 23.8918 97.2744 24.1709 95.8815 24.1709ZM95.8815 20.6445C96.486 20.6445 97.0176 20.5261 97.4764 20.2893C97.9344 20.0356 98.283 19.6889 98.5215 19.2491C98.7783 18.7925 98.9066 18.2765 98.9066 17.7015C98.9066 17.1265 98.7783 16.6275 98.5215 16.2047C98.2648 15.7649 97.9075 15.4267 97.4487 15.1899C97.009 14.9361 96.486 14.8093 95.8815 14.8093C95.2943 14.8093 94.7713 14.9361 94.3134 15.1899C93.8546 15.4267 93.4972 15.7649 93.2405 16.2047C92.9838 16.6445 92.8554 17.1518 92.8554 17.7269C92.8554 18.285 92.9838 18.7925 93.2405 19.2491C93.4972 19.6889 93.8546 20.0356 94.3134 20.2893C94.7713 20.5261 95.2943 20.6445 95.8815 20.6445Z" fill="#00915A"/>
<path id="Vector_9" fill-rule="evenodd" clip-rule="evenodd" d="M119.065 24.1455C118.167 24.1455 117.341 23.9849 116.589 23.6635C116.194 23.4944 115.836 23.2925 115.517 23.0577V29.0927H111.364V11.562H115.572V12.4129C115.877 12.1826 116.216 11.9835 116.589 11.8157C117.341 11.4773 118.167 11.3082 119.065 11.3082C120.33 11.3082 121.449 11.5873 122.42 12.1455C123.411 12.7036 124.181 13.4647 124.731 14.4288C125.3 15.3929 125.583 16.4922 125.583 17.7269C125.583 18.9616 125.3 20.0609 124.731 21.025C124.181 21.9891 123.411 22.7501 122.42 23.3083C121.449 23.8665 120.33 24.1455 119.065 24.1455ZM118.295 20.6445C118.9 20.6445 119.423 20.5176 119.862 20.2639C120.321 20.0102 120.679 19.6634 120.935 19.2237C121.192 18.784 121.32 18.285 121.32 17.7269C121.32 17.1518 121.192 16.6445 120.935 16.2047C120.679 15.7649 120.321 15.4267 119.862 15.1899C119.423 14.9361 118.909 14.8093 118.322 14.8093C117.736 14.8093 117.213 14.9361 116.755 15.1899C116.314 15.4267 115.966 15.7649 115.71 16.2047C115.453 16.6445 115.325 17.1518 115.325 17.7269C115.325 18.285 115.444 18.784 115.682 19.2237C115.939 19.6634 116.296 20.0102 116.755 20.2639C117.213 20.5176 117.726 20.6445 118.295 20.6445Z" fill="#00915A"/>
<path id="Vector_10" d="M129.702 23.9172C130.472 24.1033 131.251 24.1962 132.039 24.1962C133.708 24.1962 135.028 23.8411 136 23.1307C136.99 22.4204 137.485 21.4648 137.485 20.2639C137.485 19.4859 137.33 18.8601 137.018 18.3865C136.706 17.8961 136.303 17.507 135.808 17.2195C135.313 16.932 134.79 16.7036 134.24 16.5345C133.69 16.3653 133.167 16.2216 132.673 16.1032C132.177 15.9848 131.774 15.8495 131.462 15.6973C131.15 15.545 130.994 15.3421 130.994 15.0884C130.994 14.8516 131.114 14.674 131.352 14.5556C131.59 14.4203 131.947 14.3527 132.425 14.3527C132.92 14.3527 133.424 14.4457 133.937 14.6317C134.469 14.8177 134.946 15.1392 135.367 15.5958L137.76 13.3633C137.156 12.6529 136.367 12.1201 135.395 11.7649C134.442 11.3929 133.397 11.2068 132.26 11.2068C131.178 11.2068 130.234 11.3759 129.427 11.7141C128.62 12.0525 127.996 12.5176 127.556 13.1095C127.117 13.6845 126.896 14.3696 126.896 15.1645C126.896 15.9087 127.052 16.5261 127.364 17.0165C127.675 17.4901 128.079 17.8622 128.574 18.1328C129.069 18.4034 129.592 18.6149 130.142 18.767C130.692 18.9193 131.215 19.063 131.71 19.1984C132.204 19.3168 132.608 19.4605 132.92 19.6297C133.25 19.7819 133.415 20.0102 133.415 20.3146C133.415 20.5514 133.277 20.7374 133.002 20.8728C132.745 21.0081 132.37 21.0757 131.875 21.0757C131.159 21.0757 130.499 20.9573 129.895 20.7205C129.289 20.4669 128.766 20.1201 128.326 19.6804L125.934 21.9129C126.392 22.3696 126.942 22.7756 127.584 23.1307C128.244 23.4689 128.95 23.7311 129.702 23.9172Z" fill="#00915A"/>
</g>
<defs>
<clipPath id="clip0_1134_67">
<rect width="138" height="32" fill="white"/>
</clipPath>
</defs>
</svg>
