<svg width="20" height="14" viewBox="0 0 20 14" fill="none" xmlns="http://www.w3.org/2000/svg">
<g id="Group">
<path id="Vector" d="M19.1667 7.83335H0.833333C0.333333 7.83335 0 7.50002 0 7.00002C0 6.50002 0.333333 6.16669 0.833333 6.16669H19.1667C19.6667 6.16669 20 6.50002 20 7.00002C20 7.50002 19.6667 7.83335 19.1667 7.83335Z" fill="#4B4B4B"/>
<path id="Vector_2" d="M19.1667 2.00001H0.833333C0.333333 2.00001 0 1.66668 0 1.16668C0 0.666677 0.333333 0.333344 0.833333 0.333344H19.1667C19.6667 0.333344 20 0.666677 20 1.16668C20 1.66668 19.6667 2.00001 19.1667 2.00001Z" fill="#4B4B4B"/>
<path id="Vector_3" d="M19.1667 13.6667H0.833333C0.333333 13.6667 0 13.3333 0 12.8333C0 12.3333 0.333333 12 0.833333 12H19.1667C19.6667 12 20 12.3333 20 12.8333C20 13.3333 19.6667 13.6667 19.1667 13.6667Z" fill="#4B4B4B"/>
</g>
</svg>
