<svg width="24" height="18" viewBox="0 0 24 18" fill="none" xmlns="http://www.w3.org/2000/svg">
<g id="Group">
<path id="Vector" d="M23.8 4.53384C23.8 4.53384 23.6 2.83384 22.8 2.13384C21.9 1.13384 20.9 1.13384 20.4 1.13384C17 0.933838 12 0.933838 12 0.933838C12 0.933838 7 0.933838 3.6 1.13384C3.1 1.23384 2.1 1.23384 1.2 2.13384C0.5 2.83384 0.2 4.53384 0.2 4.53384C0.2 4.53384 0 6.43384 0 8.43384V10.2338C0 12.1338 0.2 14.1338 0.2 14.1338C0.2 14.1338 0.4 15.8338 1.2 16.5338C2.1 17.5338 3.3 17.4338 3.8 17.5338C5.7 17.7338 12 17.7338 12 17.7338C12 17.7338 17 17.7338 20.4 17.4338C20.9 17.3338 21.9 17.3338 22.8 16.4338C23.5 15.7338 23.8 14.0338 23.8 14.0338C23.8 14.0338 24 12.1338 24 10.1338V8.33384C24 6.43384 23.8 4.53384 23.8 4.53384ZM9.5 12.4338V5.73384L16 9.13384L9.5 12.4338Z" fill="#4B4B4B"/>
</g>
</svg>
